<?xml version="1.0" encoding="UTF-8" standalone="no"?>
<svg
   height="24"
   viewBox="0 -960 960 960"
   width="24"
   fill="#e3e3e3"
   version="1.1"
   id="svg1"
   xmlns="http://www.w3.org/2000/svg"
   xmlns:svg="http://www.w3.org/2000/svg">
  <defs
     id="defs1" />
  <path
     d="M 784,-120 532,-372 q -30,24 -69,38 -39,14 -83,14 -109,0 -184.5,-75.5 Q 120,-471 120,-580 120,-689 195.5,-764.5 271,-840 380,-840 q 109,0 184.5,75.5 75.5,75.5 75.5,184.5 0,44 -14,83 -14,39 -38,69 l 252,252 z M 380,-400 q 75,0 127.5,-52.5 Q 560,-505 560,-580 560,-655 507.5,-707.5 455,-760 380,-760 305,-760 252.5,-707.5 200,-655 200,-580 q 0,75 52.5,127.5 Q 305,-400 380,-400 Z"
     id="path1"
     style="opacity:1;fill:#333333;fill-opacity:1" />
</svg>
